<svg width="12" height="17" viewBox="0 0 12 17" fill="none" xmlns="http://www.w3.org/2000/svg">
<path d="M8 12.5V9.99998C8 9.60216 7.84196 9.22063 7.56066 8.93932C7.27936 8.65802 6.89782 8.49998 6.5 8.49998V8.49998C6.10218 8.49998 5.72064 8.65802 5.43934 8.93932C5.15804 9.22063 5 9.60216 5 9.99998V13.5C5.05225 14.001 5.21362 14.4844 5.47277 14.9163C5.73192 15.3482 6.08255 15.7181 6.5 16H10L11.348 11.508C11.4473 11.1749 11.4587 10.8218 11.381 10.483L10.181 5.27398C10.0663 4.77664 9.76578 4.34196 9.341 4.05898L8.5 3.49998" stroke="#3B3B3B" stroke-linecap="round" stroke-linejoin="round"/>
<path d="M8.5 6.99998V0.999985H0.5V12H2.5" stroke="#3B3B3B" stroke-linecap="round" stroke-linejoin="round"/>
</svg>
