<svg width="118" height="98" viewBox="0 0 118 98" fill="none" xmlns="http://www.w3.org/2000/svg">
<path d="M62 -10.7709C94.9936 -10.7709 121.771 16.0065 121.771 49.0001C121.771 81.9937 94.9936 108.771 62 108.771C29.0064 108.771 2.229 81.9937 2.229 49.0001C2.22898 16.0065 29.0064 -10.7709 62 -10.7709Z" stroke="#EDEDED" stroke-width="4.12214"/>
<path d="M68.8847 -3.27405V2.86407C76.6086 4.00628 83.7164 7.0306 89.7208 11.4755L94.0555 7.14723C86.8892 1.64782 78.2756 -2.04875 68.8847 -3.27405ZM55.082 -3.25473C45.6965 -2.02236 37.0914 1.68191 29.9305 7.17943L34.2394 11.5077H34.2587C40.26 7.05991 47.3609 4.01292 55.082 2.86407V-3.25473ZM58.1349 9.25338V29.9156C55.6318 30.4209 53.2921 31.3961 51.2368 32.7624L36.6225 18.1546L31.1543 23.6229L45.7814 38.25C44.4188 40.3027 43.4261 42.6366 42.9217 45.1353H22.253V52.8643H42.9217C43.426 55.3618 44.4196 57.6783 45.7814 59.7302L31.1543 74.3638L36.6225 79.8321L51.2368 65.2178C53.2921 66.5842 55.6318 67.5722 58.1349 68.0776V88.7462H65.8639V68.0776C68.3694 67.5718 70.6924 66.5669 72.7492 65.1985L87.3763 79.8321L92.8446 74.3638L78.2175 59.7302C79.5787 57.6786 80.5794 55.3613 81.0836 52.8643H101.746V45.1353H81.0836C80.5793 42.6371 79.5796 40.3024 78.2175 38.25L92.8446 23.6229L87.3763 18.1546L72.7492 32.7818C70.6924 31.4134 68.3694 30.4214 65.8639 29.9156V9.25338H58.1349ZM103.82 16.9115L99.4915 21.2398C103.948 27.2468 106.986 34.3706 108.135 42.1017H114.273C113.041 32.7053 109.33 24.0786 103.82 16.9115ZM20.1597 16.9437C14.6606 24.1039 10.9566 32.716 9.72559 42.1017H15.8701C17.0175 34.3831 20.0478 27.2793 24.4944 21.2784L20.1597 16.9437ZM9.72559 55.8979C10.9531 65.2823 14.6508 73.8939 20.1469 81.0558L24.4751 76.7212C20.0335 70.7211 17.0143 63.6153 15.8701 55.8979H9.72559ZM108.135 55.8979C106.986 63.6239 103.946 70.7333 99.4915 76.7405L103.82 81.0687C109.325 73.9041 113.039 65.2887 114.273 55.8979H108.135ZM34.2394 86.4919L29.9112 90.8202C37.074 96.3273 45.6922 100.039 55.082 101.274V95.1291C47.3575 93.9784 40.242 90.9449 34.2394 86.4919ZM89.7208 86.5048C83.7143 90.9539 76.6118 94.0048 68.8847 95.1484V101.274C78.2766 100.047 86.8892 96.3387 94.0555 90.8395L89.7401 86.5048H89.7208Z" fill="#EDEDED"/>
</svg>
