<svg width="36" height="32" viewBox="0 0 36 32" fill="none" xmlns="http://www.w3.org/2000/svg">
<path d="M0 4C0 1.79086 1.79086 0 4 0H32C34.2091 0 36 1.79086 36 4V28C36 30.2091 34.2091 32 32 32H4C1.79086 32 0 30.2091 0 28V4Z" fill="white"/>
<path d="M18 5.37402C23.8655 5.37403 28.6259 10.1345 28.6259 16C28.6259 21.8655 23.8655 26.6259 18 26.6259C12.1345 26.6259 7.37402 21.8655 7.37402 16C7.37402 10.1345 12.1345 5.37402 18 5.37402Z" stroke="#3B3B3B" stroke-width="0.732824"/>
<path d="M19.2242 6.70685V7.79807C20.5973 8.00113 21.861 8.53879 22.9284 9.32899L23.699 8.55952C22.425 7.58185 20.8937 6.92468 19.2242 6.70685ZM16.7704 6.71028C15.1019 6.92937 13.5721 7.58791 12.299 8.56525L13.065 9.33471H13.0685C14.1354 8.544 15.3977 8.00231 16.7704 7.79807V6.71028ZM17.3131 8.93395V12.6072C16.8681 12.6971 16.4522 12.8704 16.0868 13.1133L13.4887 10.5164L12.5166 11.4885L15.117 14.0889C14.8747 14.4538 14.6982 14.8687 14.6086 15.313H10.9341V16.687H14.6086C14.6982 17.131 14.8749 17.5428 15.117 17.9076L12.5166 20.5091L13.4887 21.4813L16.0868 18.8832C16.4522 19.1261 16.8681 19.3017 17.3131 19.3916V23.066H18.6872V19.3916C19.1326 19.3017 19.5456 19.123 19.9112 18.8797L22.5116 21.4813L23.4837 20.5091L20.8834 17.9076C21.1254 17.5429 21.3033 17.1309 21.3929 16.687H25.0662V15.313H21.3929C21.3032 14.8688 21.1255 14.4538 20.8834 14.0889L23.4837 11.4885L22.5116 10.5164L19.9112 13.1168C19.5456 12.8735 19.1326 12.6972 18.6872 12.6072V8.93395H17.3131ZM25.4349 10.2954L24.6654 11.0649C25.4577 12.1328 25.9979 13.3992 26.2021 14.7736H27.2933C27.0742 13.1032 26.4145 11.5696 25.4349 10.2954ZM10.562 10.3011C9.58436 11.574 8.92589 13.1051 8.70703 14.7736H9.7994C10.0034 13.4015 10.5421 12.1386 11.3326 11.0717L10.562 10.3011ZM8.70703 17.2263C8.92526 18.8946 9.58262 20.4256 10.5597 21.6988L11.3292 20.9282C10.5395 19.8615 10.0028 18.5983 9.7994 17.2263H8.70703ZM26.2021 17.2263C25.9977 18.5998 25.4573 19.8637 24.6654 20.9317L25.4349 21.7011C26.4135 20.4274 27.0739 18.8958 27.2933 17.2263H26.2021ZM13.065 22.6652L12.2956 23.4347C13.569 24.4138 15.1011 25.0736 16.7704 25.2931V24.2007C15.3971 23.9962 14.1322 23.4569 13.065 22.6652ZM22.9284 22.6675C21.8606 23.4585 20.5979 24.0009 19.2242 24.2042V25.2931C20.8939 25.0751 22.425 24.4158 23.699 23.4381L22.9318 22.6675H22.9284Z" fill="#3B3B3B"/>
<path d="M4 1H32V-1H4V1ZM35 4V28H37V4H35ZM32 31H4V33H32V31ZM1 28V4H-1V28H1ZM4 31C2.34315 31 1 29.6569 1 28H-1C-1 30.7614 1.23858 33 4 33V31ZM35 28C35 29.6569 33.6569 31 32 31V33C34.7614 33 37 30.7614 37 28H35ZM32 1C33.6569 1 35 2.34315 35 4H37C37 1.23858 34.7614 -1 32 -1V1ZM4 -1C1.23858 -1 -1 1.23858 -1 4H1C1 2.34315 2.34315 1 4 1V-1Z" fill="#B8B8B8"/>
</svg>
