<svg width="121" height="98" viewBox="0 0 121 98" fill="none" xmlns="http://www.w3.org/2000/svg">
<path fill-rule="evenodd" clip-rule="evenodd" d="M62.2713 66.88C61.1851 65.2947 55.3906 56.8373 55.3906 56.8373L59.8068 68.9833L46.1157 70.9709L59.8068 72.9585L54.5069 83.3375C54.5069 83.3375 61.1191 76.3863 62.0532 75.4041C61.6683 90.4543 61.5736 94.1582 61.5736 94.1582C61.5736 94.1582 27.787 78.4791 46.5573 43.8082C46.5573 43.8082 23.1495 17.971 44.349 2.07111C44.349 2.07111 8.1332 23.9333 31.0994 61.475C31.0994 61.475 12.1081 42.9252 22.0453 24.154C22.0453 24.154 4.82085 48.4459 25.7994 75.1669C25.7994 75.1669 20.058 71.6332 14.979 58.1626C14.979 58.1626 18.6839 98.2643 63.5499 98.7905C63.5498 98.7958 63.5498 98.7958 63.5498 98.7958C63.6994 98.7958 63.8485 98.7949 63.9971 98.7944C64.1456 98.7953 64.2948 98.7958 64.4442 98.7958C64.4442 98.7958 64.4442 98.7958 64.4442 98.7905C109.31 98.2643 113.015 58.1626 113.015 58.1626C107.936 71.6332 102.195 75.1669 102.195 75.1669C123.173 48.4459 105.949 24.154 105.949 24.154C115.886 42.9252 96.8947 61.475 96.8947 61.475C119.861 23.9333 83.6451 2.07111 83.6451 2.07111C104.845 17.971 81.4368 43.8082 81.4368 43.8082C100.207 78.4791 66.4206 94.1582 66.4206 94.1582C66.4206 94.1582 66.3258 90.4543 65.9408 75.4041C66.875 76.3863 73.4872 83.3375 73.4872 83.3375L68.1873 72.9585L81.8784 70.9709L68.1873 68.9833L72.6035 56.8373C72.6035 56.8373 66.8089 65.2947 65.7227 66.88C65.2309 47.6557 64.0108 -0.0431771 64.0049 -0.268304C64.0027 -0.797283 64.0027 -0.800171 64.0027 -0.800171C64.0027 -0.800171 64.0027 -0.7997 63.997 -0.580317C63.9914 -0.799668 63.9914 -0.800171 63.9914 -0.800171C63.9914 -0.800171 63.9914 -0.79728 63.989 -0.268304C63.9795 0.10787 62.762 47.6993 62.2714 66.88" fill="#EDEDED"/>
<path d="M64.0003 -14.2811C29.0509 -14.2811 0.71875 14.0505 0.71875 49C0.71875 83.9494 29.0509 112.282 64.0003 112.282C98.9499 112.282 127.281 83.9494 127.281 49C127.281 14.0505 98.9499 -14.2811 64.0003 -14.2811V-14.2811Z" stroke="#EDEDED" stroke-width="0.0301341" stroke-miterlimit="10"/>
<path fill-rule="evenodd" clip-rule="evenodd" d="M64.0003 -14.2811C29.0514 -14.2811 0.71875 14.0511 0.71875 49C0.71875 83.9489 29.0514 112.282 64.0003 112.282C98.9493 112.282 127.281 83.9489 127.281 49C127.281 14.0511 98.9493 -14.2811 64.0003 -14.2811V-14.2811ZM64.0003 -6.70002C94.7621 -6.70002 119.7 18.2382 119.7 49C119.7 79.7618 94.7621 104.7 64.0003 104.7C33.2386 104.7 8.30035 79.7618 8.30035 49C8.30035 18.2382 33.2386 -6.70002 64.0003 -6.70002" fill="#EDEDED"/>
</svg>
