<svg width="36" height="32" viewBox="0 0 36 32" fill="none" xmlns="http://www.w3.org/2000/svg">
<path d="M0 4C0 1.79086 1.79086 0 4 0H32C34.2091 0 36 1.79086 36 4V28C36 30.2091 34.2091 32 32 32H4C1.79086 32 0 30.2091 0 28V4Z" fill="white"/>
<path d="M18.5 25.5C23.4706 25.5 27.5 21.4706 27.5 16.5C27.5 11.5294 23.4706 7.5 18.5 7.5C13.5294 7.5 9.5 11.5294 9.5 16.5C9.5 21.4706 13.5294 25.5 18.5 25.5Z" stroke="#3B3B3B" stroke-miterlimit="10" stroke-linecap="square"/>
<path d="M28.5 6.5L8.5 26.5" stroke="#3B3B3B" stroke-miterlimit="10" stroke-linecap="square"/>
<path d="M4 1H32V-1H4V1ZM35 4V28H37V4H35ZM32 31H4V33H32V31ZM1 28V4H-1V28H1ZM4 31C2.34315 31 1 29.6569 1 28H-1C-1 30.7614 1.23858 33 4 33V31ZM35 28C35 29.6569 33.6569 31 32 31V33C34.7614 33 37 30.7614 37 28H35ZM32 1C33.6569 1 35 2.34315 35 4H37C37 1.23858 34.7614 -1 32 -1V1ZM4 -1C1.23858 -1 -1 1.23858 -1 4H1C1 2.34315 2.34315 1 4 1V-1Z" fill="#B8B8B8"/>
</svg>
